# Blender v2.73 (sub 0) OBJ File: ''
# www.blender.org
mtllib slab.mtl
o Plane
v 2.200000 -0.025300 -2.200000
v -2.200000 -0.025300 -2.200000
v 2.200000 -0.025300 2.200000
v -2.200000 -0.025300 2.200000
v 2.000000 0.002467 -2.000000
v -2.000000 0.002467 -2.000000
v -2.000000 0.002467 2.000000
v 2.000000 0.002467 2.000000
vt 0.045455 0.954545
vt 0.045455 0.045455
vt 0.954545 0.045455
vt 0.954545 0.954545
vt 1.000000 1.000000
vt 0.000000 1.000000
vt 0.000000 0.000000
vt 1.000000 0.000000
vn 0.000000 1.000000 0.000000
vn 0.000000 0.990500 -0.137500
vn -0.137500 0.990500 0.000000
vn 0.000000 0.990500 0.137500
vn 0.137500 0.990500 0.000000
usemtl None
s off
f 6/1/1 7/2/1 8/3/1
f 6/1/2 5/4/2 1/5/2
f 7/2/3 6/1/3 2/6/3
f 8/3/4 7/2/4 4/7/4
f 5/4/5 8/3/5 3/8/5
f 5/4/1 6/1/1 8/3/1
f 2/6/2 6/1/2 1/5/2
f 4/7/3 7/2/3 2/6/3
f 3/8/4 8/3/4 4/7/4
f 1/5/5 5/4/5 3/8/5
